<?xml version="1.0" standalone="no"?>
<!DOCTYPE svg PUBLIC "-//W3C//DTD SVG 20010904//EN"
 "http://www.w3.org/TR/2001/REC-SVG-20010904/DTD/svg10.dtd">
<svg version="1.0" xmlns="http://www.w3.org/2000/svg"
 width="260.000000pt" height="260.000000pt" viewBox="0 0 260.000000 260.000000"
 preserveAspectRatio="xMidYMid meet">
<metadata>
Created by potrace 1.14, written by Peter Selinger 2001-2017
</metadata>
<g transform="translate(0.000000,260.000000) scale(0.100000,-0.100000)"
fill="#000000" stroke="none">
<path d="M1730 2351 c-127 -43 -210 -107 -238 -184 l-20 -52 -128 3 c-109 3
-276 -12 -330 -30 -6 -1 -39 26 -73 60 -72 73 -123 100 -266 138 -94 25 -105
26 -180 16 -201 -29 -363 -180 -405 -377 -7 -33 -14 -108 -14 -167 l-1 -107
64 -125 c51 -101 62 -131 57 -153 -24 -94 -37 -197 -45 -338 -10 -185 -21
-218 -96 -282 -92 -79 -66 -150 74 -199 l78 -28 -12 -41 c-23 -75 -39 -185
-29 -195 24 -24 124 -31 288 -20 177 11 245 3 352 -38 110 -43 233 -57 509
-57 179 0 280 4 325 13 66 14 207 59 225 73 6 4 39 17 74 29 35 12 90 34 122
51 66 33 74 34 110 15 52 -27 127 -47 153 -40 20 5 29 17 42 58 15 48 15 60 1
147 -8 51 -18 101 -21 109 -4 11 20 27 91 60 104 48 163 92 163 119 0 20 -24
54 -127 180 l-72 88 -7 114 c-6 116 -27 233 -44 255 -7 8 -3 27 14 61 35 68
45 123 46 230 0 139 -37 291 -85 347 -13 16 -27 36 -30 45 -10 32 -173 171
-232 198 -52 24 -72 27 -183 30 -69 1 -136 -1 -150 -6z"/>
</g>
</svg>
